<svg width="100" height="100" viewBox="0 0 512 512" xmlns="http://www.w3.org/2000/svg">
  <path d="M349.3 138.4c-23.3-27.4-55.5-30.7-67.5-30.7-28.4 0-55.3 16.6-69.3 16.6-14.2 0-36.1-16.2-59.3-15.8-30.4.4-58.5 17.6-74.3 44.8-31.7 54.7-8.1 135.9 22.8 180.3 15.2 22.1 33.3 46.9 57.1 45.9 22.4-.9 30.8-14.6 57.9-14.7 27.1-.1 34.5 14.7 58 14.5 23.9-.2 39.1-22.4 54-44.6 17.1-26.4 24.2-52 24.6-53.4-.5-.2-47.2-18.1-47.7-71.9-.4-44.8 36.3-66 38-67.1-20.8-30.5-53.1-33.8-64.6-34.4zM328 96.5c12.7-15.4 21.2-36.8 18.9-58.5-18.3.7-40.4 12.2-53.5 27.4-11.8 13.5-22.2 35.2-19.4 56 20.4 1.6 41.3-10.3 54-25z" fill="black"/>
</svg>
