<svg width="100" height="100" viewBox="0 0 512 512" xmlns="http://www.w3.org/2000/svg">
  <circle cx="256" cy="256" r="256" fill="#00AFF0"/>
  <path d="M351.8 309.7c-10.6 36.1-49.3 58.9-95.6 58.9-32.3 0-64.7-9.7-84.7-26.6-6.2-5.3-7.1-14.6-1.8-20.9l5.5-6.6c5.2-6.2 14.4-7.2 20.8-2.3 12.9 10 36.3 18.1 60.4 18.1 25.2 0 42.7-9.6 42.7-24.1 0-10.5-8.6-17.2-32.5-23.6l-43.2-11.5c-36.8-9.8-54.9-28.5-54.9-58.7 0-36.9 34.1-61.6 84.9-61.6 26.4 0 51.9 6.6 71.2 18.5 6.9 4.3 9.4 13 6 20.2l-3.6 7.7c-3.7 7.8-13 10.8-20.1 6.8-13.6-7.5-29.7-11.5-48.2-11.5-23.1 0-39 8.6-39 21.3 0 10.2 8.7 16.8 32.1 23.4l35.8 10c41.7 11.5 62.6 30.6 62.6 59.5z" fill="#fff"/>
</svg>


